<svg width="127" height="30" viewBox="0 0 127 30" fill="none" xmlns="http://www.w3.org/2000/svg">
<path d="M46.3317 5.49777H44.4834L39.45 11.7871L34.4281 5.49777H32.5798V17.2975H34.5444V8.79936L39.45 14.9492L44.3672 8.79936V17.2975H46.3317V5.49777ZM57.2007 13.8099L52.5625 7.78796C53.0507 7.5787 53.5622 7.47407 54.1085 7.47407C55.1896 7.47407 56.1196 7.85771 56.8868 8.62498C57.654 9.39225 58.0377 10.3223 58.0377 11.4034C58.026 12.2986 57.747 13.1007 57.2007 13.8099ZM54.0969 15.3328C53.0158 15.3328 52.0859 14.9492 51.3186 14.1819C50.5514 13.4146 50.1678 12.4846 50.1678 11.4034C50.1678 10.5083 50.4468 9.70614 50.9932 8.98537L55.6314 15.0189C55.1431 15.2282 54.6317 15.3328 54.0969 15.3328ZM54.0969 5.49777C52.4695 5.49777 51.0862 6.07903 49.9237 7.22994C48.7729 8.38085 48.2033 9.76426 48.2033 11.3918C48.2033 13.0194 48.7729 14.4028 49.9237 15.5653C51.0745 16.7162 52.4695 17.2858 54.0969 17.2858C55.7244 17.2858 57.1077 16.7162 58.2585 15.5653C59.4094 14.4144 59.9906 13.0194 59.9906 11.3918C59.9906 9.76426 59.4094 8.38085 58.2585 7.22994C57.1077 6.07903 55.7244 5.49777 54.0969 5.49777ZM70.8479 13.8099L66.2097 7.78796C66.698 7.5787 67.2211 7.47407 67.7558 7.47407C68.8369 7.47407 69.7668 7.85771 70.5341 8.62498C71.3013 9.39225 71.6849 10.3223 71.6849 11.4034C71.6849 12.2986 71.4059 13.1007 70.8479 13.8099ZM67.7558 15.3328C66.6747 15.3328 65.7447 14.9492 64.9775 14.1819C64.2103 13.4146 63.8267 12.4846 63.8267 11.4034C63.8267 10.5083 64.1057 9.70614 64.652 8.98537L69.2902 15.0189C68.802 15.2282 68.2905 15.3328 67.7558 15.3328ZM67.7558 5.49777C66.1284 5.49777 64.745 6.07903 63.5826 7.22994C62.4317 8.38085 61.8621 9.76426 61.8621 11.3918C61.8621 13.0194 62.4317 14.4028 63.5826 15.5653C64.7334 16.7162 66.1284 17.2858 67.7558 17.2858C69.3832 17.2858 70.7666 16.7162 71.9174 15.5653C73.0682 14.4144 73.6495 13.0194 73.6495 11.3918C73.6495 9.76426 73.0682 8.38085 71.9174 7.22994C70.7666 6.07903 69.3716 5.49777 67.7558 5.49777ZM78.6596 11.8684V7.45082H81.6123C82.2168 7.45082 82.7399 7.6717 83.17 8.10184C83.6001 8.53198 83.821 9.05512 83.821 9.67126C83.821 10.2758 83.6001 10.7989 83.17 11.2291C82.7399 11.6592 82.2168 11.8801 81.6123 11.8801H78.6596V11.8684ZM76.6835 7.45082V17.2742H78.648V13.8331H80.7986L85.2973 19.5412L88.5522 20.5061L83.077 13.5541C83.8675 13.2519 84.5184 12.752 84.995 12.0428C85.4949 11.3221 85.7506 10.5315 85.7506 9.64801C85.7506 8.4971 85.3438 7.50895 84.5301 6.69518C83.7163 5.8814 82.7282 5.46289 81.5774 5.46289H76.2999L75.4745 7.42757H76.6835V7.45082ZM98.1308 5.49777H88.9823L88.1569 7.46245H89.3426V17.2975H91.3072V12.3916H94.5504L95.1317 10.4269H91.3072V7.47407H97.5496L98.1308 5.49777ZM99.9907 5.49777V17.2975H101.955V5.49777H99.9907ZM113.65 5.49777H111.325L110.511 7.46245H111.685V13.775L105.664 5.49777H103.827V17.2975H105.791V9.02024L111.813 17.2975H113.65V5.49777ZM120.624 15.3328H118.66V7.47407H120.624C121.705 7.47407 122.635 7.85771 123.403 8.62498C124.17 9.39225 124.553 10.3223 124.553 11.4034C124.553 12.4846 124.17 13.4146 123.403 14.1819C122.635 14.9492 121.705 15.3328 120.624 15.3328ZM120.624 5.49777H116.335L115.51 7.46245H116.684V17.2975H120.613C122.24 17.2975 123.623 16.7278 124.786 15.5769C125.937 14.426 126.506 13.031 126.506 11.4034C126.506 9.77589 125.937 8.39247 124.786 7.24157C123.635 6.07903 122.24 5.49777 120.624 5.49777Z" fill="white"/>
<path d="M37.2167 23.4746V27.7113H36.4465V24.9228L35.1371 26.7561H34.6749L33.3655 24.9228V27.7113H32.5798V23.4746H33.196L34.906 25.8625L36.6159 23.4746H37.2167Z" fill="white"/>
<path d="M40.8986 23.4746L42.5931 27.7113H41.8075L41.4223 26.7561H39.3581L38.9729 27.7113H38.1719L39.8664 23.4746H40.8986ZM39.6354 26.0474H41.1296L40.3748 24.1679L39.6354 26.0474Z" fill="white"/>
<path d="M47.3996 27.7113H46.8296L44.3186 24.7995V27.7113H43.533V23.4746H44.1029L46.614 26.3863V23.4746H47.3996V27.7113Z" fill="white"/>
<path d="M51.0658 23.4746L52.7603 27.7113H51.9747L51.5896 26.7561H49.5253L49.1402 27.7113H48.3391L50.0337 23.4746H51.0658ZM49.8026 26.0474H51.2969L50.542 24.1679L49.8026 26.0474Z" fill="white"/>
<path d="M55.6104 25.338H57.5668C57.5823 25.3996 57.5823 25.4766 57.5823 25.5845C57.5823 26.2161 57.3974 26.7399 57.0277 27.1559C56.6271 27.6026 56.1034 27.8337 55.4718 27.8337C54.8556 27.8337 54.3318 27.6181 53.9005 27.1713C53.4691 26.7245 53.238 26.2007 53.238 25.5845C53.238 24.9682 53.4537 24.4444 53.9005 24.0131C54.3318 23.5817 54.8556 23.3506 55.4718 23.3506C55.8261 23.3506 56.165 23.4276 56.4885 23.5971C56.812 23.7666 57.0739 23.9822 57.2896 24.2749L56.6425 24.7217C56.5039 24.5369 56.3344 24.3982 56.1342 24.2904C55.9339 24.1825 55.7182 24.1363 55.4872 24.1363C55.0866 24.1363 54.7477 24.2749 54.455 24.5677C54.1777 24.845 54.0237 25.1993 54.0237 25.5999C54.0237 26.0004 54.1623 26.3394 54.455 26.6321C54.7323 26.9248 55.0866 27.0634 55.4872 27.0634C55.8261 27.0634 56.088 26.971 56.3036 26.7861C56.5193 26.6013 56.6734 26.3702 56.7504 26.0929H55.6258V25.338H55.6104Z" fill="white"/>
<path d="M62.1882 24.1987H59.554V25.2155H61.7261V25.955H59.554V26.9718H62.1882V27.7113H58.7683V23.4746H62.1882V24.1987Z" fill="white"/>
<path d="M66.2242 27.6821C66.1318 27.7745 66.0086 27.8361 65.8699 27.8361C65.7313 27.8361 65.6081 27.7899 65.5156 27.6821C65.4232 27.5896 65.3616 27.4664 65.3616 27.3277C65.3616 27.1891 65.4078 27.0658 65.5156 26.9734C65.6081 26.881 65.7313 26.8193 65.8699 26.8193C66.0086 26.8193 66.1318 26.8656 66.2242 26.9734C66.3167 27.0658 66.3783 27.1891 66.3783 27.3277C66.3783 27.4664 66.3321 27.5742 66.2242 27.6821Z" fill="white"/>
<path d="M71.416 25.2501C71.6009 25.3117 71.7395 25.3579 71.8627 25.3887C71.9706 25.435 72.1092 25.4812 72.2633 25.5736C72.4173 25.6506 72.5406 25.7277 72.633 25.8201C72.7254 25.8971 72.8025 26.005 72.8641 26.1436C72.9257 26.2669 72.9565 26.4209 72.9565 26.575C72.9565 26.8061 72.9103 27.0064 72.8025 27.1604C72.71 27.3299 72.5714 27.4531 72.3865 27.5456C72.2171 27.638 72.0168 27.6996 71.8165 27.7459C71.6163 27.7921 71.3852 27.8075 71.1387 27.8075C70.5225 27.8075 69.9525 27.6534 69.3979 27.3453L69.7985 26.7137C70.276 26.9756 70.7228 27.0988 71.1695 27.0988C71.8011 27.0988 72.1246 26.9293 72.1246 26.5904C72.1246 26.498 72.0938 26.4209 72.0476 26.3439C72.0014 26.2669 71.9244 26.2053 71.8011 26.159C71.6933 26.0974 71.5855 26.0666 71.493 26.0204C71.4006 25.9896 71.262 25.9433 71.0925 25.8971C71.0771 25.8971 71.0771 25.8971 71.0771 25.8971H71.0617H71.0463C70.846 25.8355 70.692 25.7893 70.5841 25.7585C70.4763 25.7277 70.3377 25.666 70.1836 25.589C70.0142 25.512 69.8909 25.435 69.8139 25.3425C69.7215 25.2655 69.6598 25.1577 69.5828 25.019C69.5212 24.8803 69.4904 24.7417 69.4904 24.5722C69.4904 24.2333 69.629 23.956 69.9217 23.7403C70.2298 23.5246 70.6612 23.4014 71.2311 23.4014C71.7857 23.4014 72.3249 23.5554 72.8641 23.8635L72.4789 24.4644C72.0322 24.2179 71.6009 24.0946 71.1849 24.0946C70.8922 24.0946 70.6766 24.1409 70.5225 24.2179C70.3685 24.2949 70.2914 24.4028 70.2914 24.5414C70.2914 24.6184 70.3068 24.6801 70.3531 24.7417C70.3993 24.8033 70.4455 24.8495 70.4917 24.8957C70.5379 24.942 70.6149 24.9728 70.7228 25.019C70.8306 25.0652 70.923 25.096 70.9847 25.1268C71.0463 25.1422 71.1541 25.1885 71.3082 25.2193C71.3698 25.2347 71.4006 25.2347 71.416 25.2501Z" fill="white"/>
<path d="M77.7012 24.1987H75.0669V25.2155H77.239V25.955H75.0669V26.9718H77.7012V27.7113H74.2812V23.4746H77.7012V24.1987Z" fill="white"/>
<path d="M81.8912 26.2477L82.985 27.7113H82.0607L81.0901 26.4017H79.8115V27.7113H79.0259V23.4746H81.2596C81.6755 23.4746 82.0145 23.6133 82.3071 23.906C82.5998 24.1987 82.7385 24.5376 82.7385 24.9382C82.7385 25.2309 82.6615 25.4928 82.5074 25.7239C82.3534 25.955 82.1531 26.1398 81.8912 26.2477ZM81.2288 25.6469C81.4291 25.6469 81.5985 25.5852 81.7372 25.4466C81.8758 25.3079 81.9528 25.1385 81.9528 24.9382C81.9528 24.7379 81.8758 24.5684 81.7372 24.4298C81.5985 24.2911 81.4291 24.2141 81.2288 24.2141H79.8115V25.6469H81.2288Z" fill="white"/>
<path d="M86.9747 23.4746H87.7757L86.0812 27.7113H85.2031L83.5085 23.4746H84.3096L85.6344 26.8023L86.9747 23.4746Z" fill="white"/>
<path d="M88.8542 27.7113V23.4746H89.6399V27.7113H88.8542Z" fill="white"/>
<path d="M94.0304 26.6512L94.5542 27.2212C94.1229 27.6217 93.6145 27.822 93.0445 27.822C92.4283 27.822 91.9045 27.6063 91.4732 27.1596C91.0419 26.7128 90.8108 26.189 90.8108 25.5727C90.8108 24.9565 91.0265 24.4327 91.4732 24.0013C91.9045 23.57 92.4283 23.3389 93.0445 23.3389C93.6299 23.3389 94.1383 23.5391 94.5542 23.9397L94.015 24.5097C93.7377 24.2478 93.4142 24.1246 93.0291 24.1246C92.6286 24.1246 92.2897 24.2632 91.997 24.5559C91.7197 24.8333 91.5656 25.1876 91.5656 25.5881C91.5656 25.9887 91.7043 26.3276 91.997 26.6203C92.2743 26.9131 92.6286 27.0517 93.0291 27.0517C93.4142 27.0517 93.7531 26.9131 94.0304 26.6512Z" fill="white"/>
<path d="M99.237 24.1987H96.6028V25.2155H98.7749V25.955H96.6028V26.9718H99.237V27.7113H95.8171V23.4746H99.237V24.1987Z" fill="white"/>
<path d="M103.274 27.6821C103.181 27.7745 103.058 27.8361 102.919 27.8361C102.781 27.8361 102.657 27.7899 102.565 27.6821C102.473 27.5742 102.411 27.4664 102.411 27.3277C102.411 27.1891 102.457 27.0658 102.565 26.9734C102.657 26.881 102.781 26.8193 102.919 26.8193C103.058 26.8193 103.181 26.8656 103.274 26.9734C103.366 27.0658 103.428 27.1891 103.428 27.3277C103.428 27.4664 103.381 27.5742 103.274 27.6821Z" fill="white"/>
<path d="M108.834 23.4746C109.266 23.4746 109.635 23.6287 109.944 23.9368C110.252 24.2449 110.406 24.5992 110.406 25.0306C110.406 25.462 110.252 25.8317 109.944 26.1244C109.635 26.4326 109.266 26.5712 108.834 26.5712H107.479V27.7113H106.693V23.4746H108.834ZM108.804 25.8163C109.019 25.8163 109.22 25.7393 109.374 25.5852C109.528 25.4312 109.605 25.2463 109.605 25.0306C109.605 24.8149 109.528 24.6301 109.374 24.4606C109.22 24.3065 109.019 24.2295 108.804 24.2295H107.479V25.8317H108.804V25.8163Z" fill="white"/>
<path d="M113.487 23.4746L115.181 27.7113H114.396L114.011 26.7561H111.946L111.561 27.7113H110.76L112.455 23.4746H113.487ZM112.224 26.0474H113.718L112.963 24.1679L112.224 26.0474Z" fill="white"/>
<path d="M118.678 23.4746H119.572L117.846 26.032V27.7113H117.061V26.032L115.335 23.4746H116.229L117.461 25.2925L118.678 23.4746Z" fill="white"/>
<path fill-rule="evenodd" clip-rule="evenodd" d="M14.2501 19.5597C14.019 19.5597 13.8264 19.4056 13.7879 19.2131L8.39629 0.957344C8.31927 0.687745 8.47332 0.418146 8.7429 0.341118C9.01248 0.264089 9.28206 0.418146 9.35908 0.687746L14.7507 18.9435C14.8277 19.2131 14.6737 19.4827 14.4041 19.5597C14.3271 19.5597 14.2886 19.5597 14.2501 19.5597Z" fill="white"/>
<path fill-rule="evenodd" clip-rule="evenodd" d="M10.0137 2.92708L11.2846 7.20215C11.9778 6.70147 13.2487 6.12375 14.9432 6.39335C16.7533 6.70147 17.7931 5.9697 18.1397 5.66158L16.8688 1.42502C16.2911 1.81017 15.0588 2.42639 13.1717 2.11828C11.5927 1.81017 10.4374 2.54194 10.0137 2.92708ZM10.9765 8.55015C10.938 8.55015 10.8995 8.55015 10.861 8.55015C10.6684 8.51163 10.5529 8.39609 10.5144 8.20352L8.97391 2.92708C8.9354 2.77302 8.97391 2.58045 9.08945 2.42639C9.16647 2.34937 10.784 0.654742 13.3642 1.11691C15.4824 1.50205 16.5607 0.423655 16.6762 0.269598C16.7533 0.115541 16.9073 0 17.0999 0C17.331 0 17.562 0.115543 17.639 0.346628L19.1795 5.62307C19.218 5.7001 19.218 5.73861 19.1795 5.81564C19.1795 5.89267 19.141 6.16227 18.5633 6.58592C18.1012 6.93255 16.7533 7.70284 14.7507 7.35621C12.7095 7.00958 11.4002 8.35758 11.3616 8.35758C11.2461 8.47312 11.1306 8.55015 10.9765 8.55015Z" fill="white"/>
<path fill-rule="evenodd" clip-rule="evenodd" d="M12.0163 23.4933C12.4399 23.4933 12.8635 23.5704 13.2486 23.7629C13.7493 23.994 14.327 23.994 14.7891 23.7629C15.4823 23.4163 16.291 23.3778 16.9843 23.6859C17.716 23.4163 18.5247 23.4548 19.2179 23.8014C19.295 23.84 19.372 23.8785 19.449 23.917C19.526 23.3778 19.4875 22.8386 19.3335 22.2994C18.7173 20.1811 16.4836 18.9872 14.3655 19.6034C12.5939 20.1426 11.4386 21.7602 11.5156 23.5704C11.7082 23.4933 11.8622 23.4933 12.0163 23.4933ZM14.0189 24.9569C13.5952 24.9569 13.1716 24.8798 12.7865 24.6873C12.3243 24.4562 11.7852 24.4562 11.2845 24.6488C11.1305 24.7258 10.9764 24.7258 10.8609 24.6488C10.7069 24.5717 10.6298 24.4562 10.5913 24.3021C10.1292 21.7987 11.6311 19.3338 14.0959 18.602C16.7532 17.8318 19.526 19.3338 20.2963 21.9913C20.5273 22.8386 20.5658 23.7244 20.3733 24.5717C20.3348 24.8028 20.1037 24.9569 19.8726 24.9569C19.4875 24.9184 19.1409 24.8413 18.7943 24.6873C18.2937 24.4562 17.716 24.4562 17.2538 24.6873C17.0998 24.7643 16.9457 24.7643 16.7917 24.6873C16.291 24.4562 15.7134 24.4562 15.2512 24.6873C14.8661 24.8798 14.4425 24.9569 14.0189 24.9569Z" fill="white"/>
<path fill-rule="evenodd" clip-rule="evenodd" d="M29.5395 27.728C29.4625 27.728 29.3854 27.728 29.3084 27.6895L28.1916 27.1503C27.7294 26.9192 27.2288 26.9192 26.7666 27.0733L26.1119 27.3429C25.3802 27.651 24.5715 27.6125 23.8783 27.2658L23.7627 27.2273C23.5317 27.1118 23.4161 26.8037 23.5317 26.5726C23.6472 26.3415 23.9553 26.226 24.1864 26.3415L24.3019 26.38C24.764 26.6111 25.2647 26.6111 25.7268 26.457L26.3815 26.1874C27.1132 25.8793 27.922 25.9178 28.6152 26.2645L29.732 26.8037C29.9631 26.9192 30.0786 27.2273 29.9631 27.4584C29.8861 27.6125 29.732 27.728 29.5395 27.728Z" fill="white"/>
<path fill-rule="evenodd" clip-rule="evenodd" d="M17.0227 27.6923C16.5991 27.6923 16.1755 27.6153 15.7904 27.4227C15.2897 27.1916 14.712 27.1916 14.2499 27.4227C14.0188 27.5383 13.7107 27.4612 13.5952 27.1916C13.4797 26.9606 13.5567 26.6524 13.8263 26.5369C14.5965 26.1518 15.5208 26.1518 16.291 26.5369C16.7917 26.768 17.3693 26.768 17.8315 26.5369C18.6017 26.1518 19.4875 26.1518 20.2577 26.5369C20.4888 26.6524 20.6043 26.9606 20.4888 27.1916C20.3733 27.4227 20.0652 27.5383 19.8341 27.4227C19.3334 27.1916 18.7558 27.1916 18.2936 27.4227C17.87 27.6153 17.4464 27.6923 17.0227 27.6923Z" fill="white"/>
<path fill-rule="evenodd" clip-rule="evenodd" d="M0.501675 27.7333C0.309117 27.7333 0.116556 27.6178 0.0395331 27.4252C-0.076002 27.1556 0.0780465 26.886 0.309117 26.7705L1.8881 26.1542C2.61982 25.8461 3.42856 25.8846 4.12177 26.2313L4.23731 26.2698C4.73796 26.5009 5.31563 26.5009 5.77777 26.2698C6.54801 25.8846 7.43378 25.8846 8.20401 26.2698C8.70466 26.5009 9.28234 26.5009 9.74448 26.2698C9.78299 26.2698 9.8215 26.2313 9.86001 26.2313C10.1296 26.1542 10.3992 26.3083 10.4762 26.5779C10.5532 26.809 10.3992 27.0401 10.2066 27.1556C9.43639 27.5407 8.55062 27.5407 7.78038 27.1556C7.27973 26.9245 6.70206 26.9245 6.23992 27.1556C5.46968 27.5407 4.58391 27.5407 3.81368 27.1556L3.69814 27.1171C3.236 26.886 2.73535 26.886 2.27321 27.0401L0.694233 27.6563C0.655722 27.7333 0.578698 27.7333 0.501675 27.7333Z" fill="white"/>
<path fill-rule="evenodd" clip-rule="evenodd" d="M1.50289 25.2255C1.31033 25.2255 1.11778 25.11 1.04075 24.9174C0.925219 24.6478 1.07926 24.3782 1.31033 24.2626L2.88931 23.6464C3.62104 23.3383 4.42978 23.3768 5.12299 23.7235L5.23853 23.762C5.73918 23.993 6.31685 23.993 6.77899 23.762C7.54923 23.3768 8.47351 23.3768 9.24374 23.762C9.7444 23.993 10.3221 23.993 10.7842 23.762C11.5544 23.3768 12.4787 23.3768 13.249 23.762C13.7496 23.993 14.3273 23.993 14.7894 23.762C15.4826 23.4153 16.2914 23.3768 16.9846 23.6849C17.7163 23.4153 18.5251 23.4539 19.2183 23.8005C19.7189 24.0316 20.2966 24.0316 20.7587 23.8005C21.529 23.4153 22.4147 23.4153 23.185 23.8005L23.3005 23.839C23.7626 24.0701 24.2633 24.0701 24.7254 23.916L25.3801 23.6464C26.1119 23.3383 26.9206 23.3768 27.6138 23.7235L28.7307 24.2626C28.9617 24.3782 29.0773 24.6863 28.9617 24.9174C28.8462 25.1485 28.5381 25.264 28.307 25.1485L27.1902 24.6093C26.728 24.3782 26.2274 24.3782 25.7653 24.5322L25.1106 24.8018C24.3788 25.11 23.5701 25.0714 22.8769 24.7248L22.7613 24.6863C22.2607 24.4552 21.683 24.4552 21.2209 24.6863C20.4506 25.0714 19.5649 25.0714 18.7946 24.6863C18.294 24.4552 17.7163 24.4552 17.2542 24.6863C17.1001 24.7633 16.9461 24.7633 16.792 24.6863C16.2914 24.4552 15.7137 24.4552 15.2516 24.6863C14.4813 25.0714 13.5956 25.0714 12.8253 24.6863C12.3247 24.4552 11.747 24.4552 11.2849 24.6863C10.5146 25.0714 9.59035 25.0714 8.82011 24.6863C8.31946 24.4552 7.74179 24.4552 7.27965 24.6863C6.50941 25.0714 5.58513 25.0714 4.8149 24.6863L4.69936 24.6478C4.23722 24.4167 3.73657 24.4167 3.27443 24.5708L1.69545 25.187C1.65694 25.2255 1.57992 25.2255 1.50289 25.2255Z" fill="white"/>
<path fill-rule="evenodd" clip-rule="evenodd" d="M29.5392 30.0005C29.4622 30.0005 29.3851 30.0005 29.3081 29.962L28.1913 29.4228C27.7291 29.1917 27.2285 29.1917 26.7663 29.3457L26.1116 29.6153C25.3799 29.9234 24.5712 29.8849 23.878 29.5383C23.6469 29.4228 23.5314 29.1146 23.6469 28.8836C23.7624 28.6525 24.0705 28.5369 24.3016 28.6525C24.7637 28.8836 25.2644 28.8836 25.7265 28.7295L26.3812 28.4599C27.1129 28.1518 27.9217 28.1903 28.6149 28.5369L29.7317 29.0761C29.9628 29.1917 30.0783 29.4998 29.9628 29.7309C29.8858 29.9234 29.7317 30.0005 29.5392 30.0005Z" fill="white"/>
<path fill-rule="evenodd" clip-rule="evenodd" d="M17.0229 29.7353C16.5993 29.7353 16.1757 29.6583 15.7906 29.4657C15.5595 29.3502 15.4439 29.042 15.5595 28.811C15.675 28.5799 15.9831 28.4643 16.2142 28.5799C16.7148 28.811 17.2925 28.811 17.7546 28.5799C18.5249 28.1947 19.4107 28.1947 20.1809 28.5799C20.412 28.6954 20.5275 29.0035 20.412 29.2346C20.2964 29.4657 19.9883 29.5812 19.7573 29.4657C19.2566 29.2346 18.6789 29.2346 18.2168 29.4657C17.8702 29.6583 17.4466 29.7353 17.0229 29.7353Z" fill="white"/>
<path fill-rule="evenodd" clip-rule="evenodd" d="M9.01268 29.734C8.58905 29.734 8.16542 29.657 7.7803 29.4644C7.54923 29.3489 7.4337 29.0407 7.54923 28.8097C7.66477 28.5401 7.97286 28.463 8.24244 28.5786C8.74309 28.8482 9.35928 28.7711 9.85993 28.5401C10.4376 28.2705 11.0923 28.2319 11.67 28.386C11.9781 28.463 12.0936 28.8097 11.9781 29.0793C11.8625 29.3103 11.6315 29.3874 11.4004 29.3489C11.0153 29.2718 10.5917 29.3103 10.245 29.5029C9.85993 29.657 9.4363 29.734 9.01268 29.734Z" fill="white"/>
<path fill-rule="evenodd" clip-rule="evenodd" d="M0.501431 29.9999C0.308872 29.9999 0.116312 29.8844 0.039289 29.6918C-0.0762461 29.4222 0.0778024 29.1526 0.308873 29.0371L1.88785 28.4208C2.61957 28.1127 3.42832 28.1512 4.12153 28.4979L4.23706 28.5364C4.46813 28.6519 4.58367 28.96 4.46813 29.1911C4.3526 29.4222 4.04451 29.5377 3.81344 29.4222L3.6979 29.3837C3.27427 29.1526 2.73511 29.1526 2.27297 29.3067L0.693989 29.9229C0.655478 29.9999 0.578454 29.9999 0.501431 29.9999Z" fill="white"/>
</svg>
